<?xml version="1.0" standalone="no"?>
<!DOCTYPE svg PUBLIC "-//W3C//DTD SVG 20010904//EN"
 "http://www.w3.org/TR/2001/REC-SVG-20010904/DTD/svg10.dtd">
<svg version="1.0" xmlns="http://www.w3.org/2000/svg"
 width="1000.000000pt" height="1000.000000pt" viewBox="0 0 1000.000000 1000.000000"
 preserveAspectRatio="xMidYMid meet">

<g transform="translate(0.000000,1000.000000) scale(0.100000,-0.100000)"
fill="#000000" stroke="none">
<path d="M4380 9595 c-122 -40 -364 -156 -520 -251 -267 -161 -528 -379 -587
-490 -94 -178 -187 -510 -225 -799 -16 -129 -16 -466 1 -620 60 -553 294
-1079 662 -1487 82 -90 321 -301 423 -374 101 -71 274 -179 536 -334 213 -127
262 -157 405 -253 33 -22 80 -54 105 -71 124 -82 348 -287 427 -391 171 -222
231 -337 290 -555 23 -85 26 -117 29 -300 l3 -205 28 3 c15 2 33 10 39 18 7 8
29 18 50 21 45 7 71 23 54 33 -6 4 4 7 22 7 17 0 34 5 36 11 2 7 14 12 27 12
13 0 27 5 30 10 4 6 -10 9 -37 6 -72 -6 -86 9 -44 45 19 17 26 35 32 85 3 35
10 64 15 64 5 0 9 5 9 10 0 6 9 19 20 30 11 11 20 30 20 42 0 12 7 30 17 40 9
10 12 18 6 18 -20 0 0 52 23 60 14 6 22 15 18 23 -3 8 2 17 10 20 24 9 19 26
-5 20 -19 -5 -20 -4 -8 15 10 16 16 18 22 9 6 -8 7 -5 3 7 -6 17 11 84 25 96
14 13 30 71 24 88 -4 15 0 22 15 27 13 4 20 15 20 31 0 30 39 71 93 98 26 14
37 26 37 42 0 17 5 22 19 19 11 -2 25 3 32 12 11 12 10 14 -7 11 -16 -2 -19 3
-20 35 -1 42 -1 42 19 23 12 -12 13 -8 9 35 -5 49 -1 54 36 50 6 -1 12 3 12 9
0 5 14 10 30 10 28 0 30 3 30 35 0 19 5 35 11 35 8 0 8 4 2 13 -6 6 -8 21 -6
32 3 11 7 39 10 62 4 33 8 41 21 37 14 -5 14 -4 0 6 -11 6 -18 23 -18 40 0 38
18 48 22 13 3 -19 7 -7 12 34 5 34 14 64 20 66 9 4 13 38 7 66 -1 2 -7 -2 -15
-8 -11 -10 -16 -8 -21 8 -3 12 -10 21 -15 21 -5 0 -7 -7 -4 -15 4 -10 0 -15
-15 -15 -28 0 -28 34 0 54 15 10 19 20 14 36 -6 19 -4 21 14 15 18 -5 21 -2
22 22 1 38 22 140 32 149 4 4 7 22 7 40 0 19 8 41 18 51 26 26 42 69 42 113 0
29 5 40 19 45 18 5 18 8 6 32 -15 28 -10 48 5 24 4 -8 15 -11 24 -8 9 4 16 2
16 -3 0 -6 6 -10 13 -10 7 0 19 -8 28 -17 8 -10 28 -29 44 -43 26 -23 105
-106 154 -165 42 -48 84 -120 140 -238 34 -69 61 -130 61 -134 1 -4 9 -26 20
-48 11 -22 19 -48 20 -57 0 -10 9 -22 21 -29 19 -10 20 -9 14 13 -8 25 -8 26
-6 46 1 10 6 10 21 2 17 -9 22 -7 30 15 12 31 18 32 15 1 -3 -21 -1 -22 21
-12 13 6 26 18 29 27 10 31 -55 280 -91 349 -7 14 -31 63 -53 110 -23 47 -58
107 -78 134 -21 27 -42 56 -48 64 -11 16 -26 34 -64 76 -13 15 -21 29 -17 33
3 3 0 13 -6 21 -10 11 -8 17 7 28 10 8 26 14 34 14 14 0 14 -2 1 -10 -16 -10
-13 -17 10 -20 34 -5 38 1 15 26 -14 15 -23 29 -21 33 2 3 -2 12 -10 19 -11
10 -14 10 -14 0 0 -8 -5 -6 -11 5 -6 9 -15 14 -21 11 -7 -5 -9 -1 -5 9 9 24
-49 70 -80 62 -13 -3 -23 -1 -23 5 0 5 5 10 10 10 17 0 -31 45 -69 66 -19 11
-43 27 -53 37 -10 9 -23 17 -29 17 -6 0 -34 15 -62 34 -114 73 -380 197 -634
294 -73 28 -156 62 -185 75 -29 13 -98 44 -152 67 -97 42 -394 197 -566 294
-248 141 -516 370 -691 592 -111 140 -145 192 -222 343 -156 303 -224 639
-198 976 20 265 100 509 239 738 64 103 65 107 45 106 -10 0 -65 -16 -123 -34z
m2670 -3607 c0 -17 -3 -28 -7 -24 -9 9 -13 38 -7 48 10 15 14 8 14 -24z m77
-34 c-3 -3 -12 -4 -19 -1 -8 3 -5 6 6 6 11 1 17 -2 13 -5z m-57 -14 c0 -5 -4
-10 -10 -10 -5 0 -10 5 -10 10 0 6 5 10 10 10 6 0 10 -4 10 -10z m70 -100 c0
-5 -2 -10 -4 -10 -3 0 -8 5 -11 10 -3 6 -1 10 4 10 6 0 11 -4 11 -10z m33 -40
c3 -11 3 -20 1 -20 -2 0 -8 9 -14 20 -6 11 -7 20 -2 20 6 0 12 -9 15 -20z
m257 -780 c0 -5 -7 -10 -16 -10 -8 0 -12 5 -9 10 3 6 10 10 16 10 5 0 9 -4 9
-10z m-750 -324 c0 -18 -5 -23 -25 -23 -15 0 -25 5 -25 14 0 10 6 12 20 8 11
-3 20 -2 20 4 0 5 -10 12 -22 14 -20 4 -19 4 5 6 22 1 27 -3 27 -23z m-559
-1129 c-6 -6 -20 -5 -38 1 -28 10 -28 10 10 9 24 0 34 -4 28 -10z"/>
<path d="M5385 9240 c-107 -13 -194 -50 -286 -123 -109 -87 -193 -222 -230
-368 -18 -72 -20 -104 -16 -224 7 -189 33 -278 123 -416 54 -82 119 -143 209
-196 117 -69 181 -87 320 -86 106 0 128 3 188 26 112 44 187 88 244 145 58 58
138 170 129 179 -3 4 1 14 10 24 14 16 21 44 23 97 1 7 5 11 10 8 5 -4 7 3 4
13 -3 11 0 59 7 107 12 90 6 148 -13 141 -12 -4 -30 13 -57 54 -18 27 -35 44
-88 89 -23 19 -42 40 -42 45 0 6 -25 35 -55 65 -31 30 -66 66 -78 79 -12 13
-43 45 -69 72 -27 27 -48 52 -48 55 0 12 -118 123 -124 117 -3 -4 -6 1 -6 10
0 10 -6 17 -14 17 -11 0 -30 26 -27 38 2 5 -40 42 -46 41 -5 -1 -35 -5 -68 -9z"/>
<path d="M3038 8638 c-58 -70 -146 -189 -193 -263 -22 -33 -56 -86 -76 -117
-36 -56 -174 -324 -216 -423 -134 -306 -233 -731 -264 -1119 -33 -434 46 -980
206 -1411 95 -258 301 -605 506 -855 307 -374 771 -717 1184 -874 55 -22 120
-46 145 -56 25 -9 68 -23 95 -30 28 -6 57 -14 65 -18 8 -3 19 -4 24 -3 5 1 12
-3 16 -9 6 -9 115 -30 168 -32 12 0 22 -4 22 -9 0 -5 5 -9 11 -9 6 0 9 7 5 15
-6 18 19 21 30 3 5 -7 3 -8 -6 -3 -9 5 -11 4 -6 -3 16 -26 33 -11 34 30 1 23
7 45 13 49 6 3 13 22 15 40 10 93 17 119 30 119 9 0 14 12 14 34 0 19 5 38 10
41 14 9 12 72 -2 78 -8 3 -3 12 15 26 15 13 27 29 27 37 0 13 4 15 28 14 4 -1
9 16 12 37 4 33 9 38 33 41 50 6 29 24 -24 20 l-51 -3 7 45 c4 25 11 48 16 51
5 3 7 12 4 20 -2 8 8 29 25 47 33 38 35 42 49 126 6 33 20 77 31 99 11 21 16
36 10 32 -5 -3 -10 -2 -10 3 0 16 13 22 26 12 9 -8 12 -6 10 6 0 9 7 18 17 20
28 4 31 11 19 36 l-11 23 0 -24 c-1 -13 -4 -21 -7 -18 -4 4 1 31 11 62 9 30
14 62 11 70 -3 8 -1 17 5 21 6 3 8 13 4 21 -5 14 -3 14 11 2 15 -12 16 -11 10
9 -7 22 0 26 41 25 6 0 9 6 6 13 -4 10 -10 11 -23 4 -15 -8 -17 -6 -13 10 3
11 12 20 20 20 12 0 12 2 -1 15 -8 8 -22 12 -30 9 -11 -4 -15 -2 -11 8 4 9
-13 30 -42 54 -51 43 -179 134 -188 134 -3 0 -38 20 -78 44 -39 24 -91 53
-115 65 -121 61 -489 294 -702 444 -199 140 -400 342 -552 553 -162 226 -318
544 -412 839 -90 285 -106 388 -113 715 -7 367 25 608 126 944 23 75 41 139
41 141 0 17 -24 -2 -62 -47z"/>
<path d="M7296 5806 c5 -12 0 -16 -20 -16 -17 0 -26 -5 -26 -16 0 -8 -5 -12
-11 -9 -6 4 -8 14 -5 22 3 8 1 11 -4 8 -17 -10 -11 -33 10 -40 12 -4 17 -11
14 -18 -4 -7 -4 -9 1 -5 4 4 15 2 23 -5 16 -13 17 -13 -5 40 -5 13 -2 15 15
11 12 -4 20 -2 17 2 -3 5 0 10 6 12 7 2 5 9 -5 17 -14 12 -16 12 -10 -3z"/>
<path d="M7476 4946 c3 -9 11 -16 16 -16 13 0 5 23 -10 28 -7 2 -10 -2 -6 -12z"/>
<path d="M7510 4940 c0 -5 5 -10 10 -10 6 0 10 5 10 10 0 6 -4 10 -10 10 -5 0
-10 -4 -10 -10z"/>
<path d="M5170 4650 c0 -5 5 -10 10 -10 6 0 10 5 10 10 0 6 -4 10 -10 10 -5 0
-10 -4 -10 -10z"/>
<path d="M6345 4140 c-3 -6 1 -7 9 -4 18 7 21 14 7 14 -6 0 -13 -4 -16 -10z"/>
<path d="M6264 3944 c3 -8 6 -18 6 -20 0 -3 5 -2 10 1 15 9 12 22 -6 29 -12 5
-15 2 -10 -10z"/>
<path d="M6240 3599 c0 -5 5 -7 10 -4 6 3 10 8 10 11 0 2 -4 4 -10 4 -5 0 -10
-5 -10 -11z"/>
<path d="M6150 2700 c-173 -25 -285 -76 -390 -177 -112 -106 -166 -229 -176
-398 -9 -158 11 -267 71 -389 72 -146 231 -261 416 -302 102 -22 361 -23 446
-2 165 42 276 106 355 203 54 66 78 127 78 196 0 75 -8 79 -175 79 -79 0 -150
-3 -159 -6 -9 -3 -36 -34 -60 -68 -75 -105 -147 -146 -257 -146 -125 0 -233
69 -285 183 -27 58 -29 70 -29 182 1 139 22 209 83 277 47 52 96 76 184 90 62
9 82 8 131 -6 62 -18 130 -71 167 -130 11 -18 31 -38 44 -44 37 -17 301 -19
321 -2 24 20 20 115 -9 177 -82 175 -285 278 -566 287 -74 3 -160 1 -190 -4z"/>
<path d="M1462 2658 c-9 -9 -12 -156 -12 -599 0 -533 2 -588 17 -600 12 -11
54 -14 168 -14 114 0 156 3 168 14 14 11 17 36 17 155 0 77 4 146 8 152 4 7
83 13 222 17 282 8 377 28 496 103 98 63 157 154 176 270 40 263 -117 454
-417 504 -83 14 -829 12 -843 -2z m763 -277 c22 -10 54 -33 70 -50 27 -29 30
-39 30 -99 0 -79 -23 -120 -86 -152 -36 -19 -56 -20 -222 -18 l-182 3 -5 74
c-3 41 -3 116 -2 168 l4 93 176 0 c151 0 183 -3 217 -19z"/>
<path d="M2826 2648 c-16 -25 -18 -222 -3 -245 6 -10 57 -13 198 -13 112 0
198 -4 210 -10 18 -10 19 -26 19 -459 0 -347 3 -451 13 -458 6 -6 78 -13 158
-17 158 -7 193 -1 203 38 3 11 6 218 6 459 0 409 1 437 18 437 9 0 100 2 201
4 163 3 186 6 198 22 20 28 18 228 -3 248 -14 14 -83 16 -609 16 l-595 0 -14
-22z"/>
<path d="M4245 2646 c-14 -20 -15 -93 -13 -594 3 -533 4 -572 21 -589 17 -17
54 -18 582 -18 444 0 567 3 577 13 16 16 24 207 9 245 l-11 27 -389 0 c-321 0
-391 2 -400 14 -8 9 -11 43 -9 93 l3 78 293 5 294 5 20 25 c18 22 20 36 16
127 -3 62 -10 108 -18 117 -11 14 -52 16 -300 16 -235 0 -290 3 -299 14 -7 9
-11 41 -9 82 3 66 4 68 33 76 17 5 188 8 380 6 193 -1 360 1 371 5 28 10 34
33 34 142 0 66 -4 97 -16 113 l-15 22 -569 0 -570 0 -15 -24z"/>
<path d="M7170 2651 c-6 -13 -10 -217 -10 -593 0 -472 2 -578 14 -593 12 -17
27 -19 177 -17 94 2 168 7 174 13 6 6 12 100 15 227 l5 217 249 3 c175 2 253
-1 262 -9 11 -9 14 -55 14 -219 0 -181 2 -209 17 -221 23 -20 313 -20 336 0
16 12 17 67 17 600 0 443 -3 590 -12 599 -8 8 -61 12 -173 12 -112 0 -165 -4
-173 -12 -9 -9 -12 -72 -12 -222 0 -116 -5 -218 -10 -226 -8 -12 -48 -16 -241
-18 -127 -2 -242 -1 -255 2 l-24 6 0 218 c-1 165 -4 221 -14 235 -12 15 -33
17 -179 17 -154 0 -167 -1 -177 -19z"/>
<path d="M1495 672 l-30 -3 0 -147 0 -147 38 -3 37 -3 0 61 0 61 88 -3 87 -3
3 -57 3 -58 34 0 35 0 0 150 0 150 -35 0 -35 0 0 -47 c0 -71 -5 -74 -96 -71
l-79 3 -3 55 c-2 30 -6 57 -10 60 -4 3 -20 4 -37 2z"/>
<path d="M1981 669 c-21 -8 -22 -12 -19 -151 l3 -143 33 -3 32 -3 0 154 c0
163 0 164 -49 146z"/>
<path d="M2270 667 c-45 -15 -75 -72 -75 -142 0 -128 66 -171 243 -158 l83 6
-3 70 c-3 59 -6 71 -22 73 -33 5 -45 -7 -48 -49 l-3 -42 -66 0 c-91 0 -109 16
-109 97 0 46 4 62 21 79 20 20 29 21 125 17 103 -5 104 -5 104 18 0 13 -9 28
-19 34 -27 14 -188 12 -231 -3z"/>
<path d="M2702 672 c-9 -3 -12 -45 -12 -153 l0 -149 35 0 34 0 3 58 3 57 88 3
87 3 2 -43 c0 -24 1 -50 2 -58 1 -9 13 -16 34 -18 l32 -3 0 150 c0 84 -4 152
-10 156 -5 3 -20 3 -34 -1 -23 -5 -25 -12 -28 -62 l-3 -57 -73 -3 c-45 -2 -79
2 -87 8 -8 7 -15 35 -17 63 -3 43 -6 51 -23 52 -12 1 -26 0 -33 -3z"/>
<path d="M3377 672 c-10 -2 -17 -13 -17 -28 0 -25 8 -28 63 -25 62 3 67 -8 67
-135 l0 -115 33 3 32 3 3 117 3 117 33 6 c18 4 44 5 57 3 20 -2 25 2 27 25 2
17 -1 27 -10 28 -57 2 -278 3 -291 1z"/>
<path d="M3883 672 l-52 -3 -3 -67 c-2 -37 -2 -104 0 -150 l3 -83 142 3 142 3
0 30 0 30 -105 5 c-97 5 -105 7 -105 25 0 18 8 20 83 23 l82 3 0 29 0 30 -69
0 c-85 0 -101 6 -101 35 0 31 16 35 126 35 94 0 94 0 94 25 0 14 -3 25 -7 26
-23 3 -186 4 -230 1z"/>
<path d="M4341 671 c-41 -11 -65 -54 -69 -125 -5 -82 11 -132 51 -156 38 -23
114 -32 187 -23 53 8 55 9 55 38 0 24 -4 29 -20 27 -11 -2 -50 -5 -87 -5 -90
-3 -111 16 -111 99 0 49 4 61 24 77 21 17 36 19 111 15 l88 -4 0 27 c0 19 -6
28 -22 33 -30 8 -176 6 -207 -3z"/>
<path d="M4975 672 c-3 -3 -5 -27 -5 -52 0 -63 -12 -72 -102 -68 l-73 3 -3 58
-3 57 -40 0 -40 0 3 -147 3 -148 35 0 35 0 3 58 3 57 83 0 c94 0 96 -1 96 -76
0 -42 1 -44 29 -44 36 0 41 21 41 180 l0 118 -30 4 c-17 3 -32 2 -35 0z"/>
<path d="M5428 673 c-16 -4 -18 -20 -18 -154 l0 -149 35 0 34 0 3 58 3 57 88
3 87 3 0 -61 0 -60 35 0 36 0 -3 153 -3 152 -30 0 c-29 0 -30 -1 -35 -60 l-5
-60 -79 -3 c-91 -3 -96 0 -96 69 0 33 -5 49 -16 53 -9 3 -16 5 -17 5 -1 -1
-10 -3 -19 -6z"/>
<path d="M5907 673 c-4 -3 -7 -73 -7 -155 l0 -149 33 4 32 3 3 146 c2 144 2
146 -20 152 -29 7 -33 7 -41 -1z"/>
<path d="M6198 662 c-48 -21 -63 -57 -61 -145 3 -123 43 -153 205 -150 59 1
112 4 118 8 13 8 13 132 0 140 -6 4 -24 4 -40 0 -26 -6 -29 -11 -32 -48 l-3
-42 -68 1 c-77 1 -94 11 -107 68 -10 47 5 102 32 117 12 7 59 10 117 7 l96 -3
-4 25 c-1 14 -8 28 -15 32 -23 15 -199 8 -238 -10z"/>
<path d="M6662 672 l-33 -3 3 -147 3 -147 35 0 35 0 3 58 3 58 87 -3 87 -3 3
-58 3 -58 32 3 32 3 3 148 3 147 -36 0 -35 0 0 -49 c0 -65 -12 -73 -102 -69
l-73 3 -3 55 c-2 30 -6 57 -10 60 -4 3 -22 4 -40 2z"/>
<path d="M7336 673 c-3 -4 -6 -73 -6 -155 l0 -148 145 0 145 0 0 30 0 29 -107
3 -108 3 -5 119 -5 119 -27 3 c-14 1 -29 0 -32 -3z"/>
<path d="M7777 673 c-4 -3 -7 -73 -7 -155 l0 -149 38 3 37 3 -2 144 c-2 148
-5 160 -44 161 -9 0 -19 -3 -22 -7z"/>
<path d="M8004 665 c-2 -5 -2 -73 -1 -150 l2 -140 35 0 35 0 5 55 5 55 83 3
82 3 0 29 0 29 -82 3 c-82 3 -83 3 -86 31 -3 22 1 27 20 28 13 1 30 2 38 3 8
2 45 3 83 4 64 2 67 3 67 26 l0 25 -141 3 c-88 2 -143 -1 -145 -7z"/>
<path d="M8563 672 l-113 -3 0 -149 0 -150 145 0 145 0 0 30 0 29 -107 3
c-108 3 -108 3 -108 28 0 24 2 25 83 28 l82 3 0 29 0 29 -82 3 c-82 3 -83 3
-86 30 -3 22 2 27 28 33 17 4 50 6 73 5 23 -2 59 -2 80 -1 32 1 37 4 37 26 0
14 -3 25 -7 26 -40 3 -74 4 -170 1z"/>
</g>
</svg>
